<svg width="1200" height="3600" xmlns="http://www.w3.org/2000/svg" style="background-color: #f8fafc; font-family: 'Segoe UI', system-ui, sans-serif;">
    <!-- Cabeçalho -->
    <rect x="0" y="0" width="1200" height="80" fill="#ffffff" />
    <line x1="0" y1="80" x2="1200" y2="80" stroke="#e2e8f0" stroke-width="2" />
    
    <text x="40" y="45" fill="#1e293b" font-size="20" font-weight="600">Escola Anísio Teixeira</text>
    
    <!-- Menu de Navegação -->
    <g fill="#64748b" font-size="14" font-weight="500">
        <text x="900" y="45">Início</text>
        <text x="960" y="45">Sobre</text>
        <text x="1020" y="45">Cursos</text>
        <text x="1085" y="45">Contato</text>
    </g>
    
    <!-- Caminho de Navegação (Breadcrumb) -->
    <g fill="#64748b" font-size="14">
        <text x="40" y="120">Início</text>
        <text x="85" y="120">›</text>
        <text x="100" y="120" fill="#3b82f6" font-weight="600">Sobre Nós</text>
    </g>
    
    <!-- Homenagem a Anísio Teixeira -->
    <rect x="40" y="150" width="1120" height="300" fill="url(#gradient)" rx="8" />
    
    <text x="600" y="190" text-anchor="middle" fill="#ffffff" font-size="28" font-weight="700">Em Homenagem a Anísio Teixeira</text>
    <text x="600" y="230" text-anchor="middle" fill="#e2e8f0" font-size="16" font-style="italic">"A educação é um processo social, é desenvolvimento."</text>
    
    <!-- Menu de Navegação Interna -->
    <rect x="40" y="470" width="1120" height="60" fill="#ffffff" rx="8" />
    <g fill="#64748b" font-size="14" font-weight="500" text-anchor="middle">
        <text x="120" y="505">Nossa História</text>
        <text x="280" y="505">Missão e Valores</text>
        <text x="440" y="505">Estrutura</text>
        <text x="600" y="505">Direção</text>
        <text x="760" y="505">Resultados</text>
        <text x="920" y="505">Prêmios</text>
        <text x="1080" y="505">Galeria</text>
    </g>
    
    <!-- Nossa História -->
    <rect x="40" y="540" width="1120" height="490" fill="#ffffff" rx="8" />
    <text x="60" y="570" fill="#1e293b" font-size="24" font-weight="700">Nossa História</text>
    
    <rect x="70" y="600" width="450" height="300" fill="#f8fafc" rx="8" />
    <text x="305" y="625" text-anchor="middle" fill="#64748b" font-size="14" font-weight="600">Foto histórica da fundação</text>
    
    <text x="540" y="610" fill="#475569" font-size="14" width="500">
        A Escola Anísio Teixeira foi fundada em 1985 por um grupo de educadores inspirados 
        pelas ideias
        </text>
        <text x="540" y="630" fill="#475569" font-size="14" width="500">
          revolucionárias de Anísio Teixeira. Desde o início, nossa instituição 
        buscou romper com os
        </text>
        <text x="540" y="650" fill="#475569" font-size="14" width="500">
        paradigmas tradicionais de ensino, priorizando:
    </text>
    
    <g font-size="14">
        <circle cx="550" cy="680" r="5" fill="#22c55e" />
        <text x="565" y="685" fill="#475569">A formação integral do aluno</text>
        
        <circle cx="550" cy="710" r="5" fill="#22c55e" />
        <text x="565" y="715" fill="#475569">O desenvolvimento do pensamento crítico</text>
        
        <circle cx="550" cy="740" r="5" fill="#22c55e" />
        <text x="565" y="745" fill="#475569">A educação como instrumento de transformação social</text>
        
        <circle cx="550" cy="770" r="5" fill="#22c55e" />
        <text x="565" y="775" fill="#475569">A valorização da curiosidade e da investigação</text>
        
        <circle cx="550" cy="800" r="5" fill="#22c55e" />
        <text x="565" y="805" fill="#475569">A integração entre escola e comunidade</text>
    </g>
    
    <text x="540" y="850" fill="#475569" font-size="14" width="500">
        Ao longo de mais de três décadas, mantivemos vivo o legado de Anísio Teixeira, adaptando suas
        </text>
        <text x="540" y="870" fill="#475569" font-size="14" width="500">
          ideias aos desafios contemporâneos e formando gerações de alunos 
        que hoje fazem a diferença
        </text>
        <text x="540" y="890" fill="#475569" font-size="14" width="500">
        em diversas áreas do conhecimento.
    </text>
  
    <!-- Linha do Tempo -->
    <rect x="80" y="950" width="1000" height="40" fill="#f1f5f9" rx="20" />
    <g text-anchor="middle" font-size="12" fill="#64748b">
        <text x="120" y="975">1985</text>
        <text x="320" y="975">1995</text>
        <text x="520" y="975">2005</text>
        <text x="720" y="975">2015</text>
        <text x="920" y="975">2023</text>
    </g>
    
    <!-- Missão, Visão e Valores -->
    <rect x="40" y="1070" width="1120" height="400" fill="#ffffff" rx="8" />
    <text x="60" y="1110" fill="#1e293b" font-size="24" font-weight="700">Missão, Visão e Valores</text>
    
    <!-- Missão -->
    <rect x="80" y="1130" width="320" height="300" fill="#f8fafc" rx="8" />
    <text x="250" y="1155" text-anchor="middle" fill="#3b82f6" font-size="16" font-weight="600">Missão</text>
    <text x="240" y="1200" text-anchor="middle" fill="#475569" font-size="14" width="280">
        Formar cidadãos críticos, autônomos e
        </text>
        <text x="240" y="1220" text-anchor="middle" fill="#475569" font-size="14" width="280">
        socialmente responsáveis, através de uma
        </text>
            <text x="240" y="1240" text-anchor="middle" fill="#475569" font-size="14" width="280">
               educação integral que valorize o conhecimento,
               </text>
              <text x="240" y="1260" text-anchor="middle" fill="#475569" font-size="14" width="280">
                a ética e a transformação social.
    </text>
    
    <!-- Visão -->
    <rect x="450" y="1130" width="300" height="300" fill="#f8fafc" rx="8" />
    <text x="600" y="1155" text-anchor="middle" fill="#3b82f6" font-size="16" font-weight="600">Visão</text>
    <text x="600" y="1200" text-anchor="middle" fill="#475569" font-size="14" width="280">
        Ser referência em educação transformadora,
        </text>
        <text x="600" y="1220" text-anchor="middle" fill="#475569" font-size="14" width="280">
        reconhecida pela excelência acadêmica e pelo
        </text>
        <text x="600" y="1240" text-anchor="middle" fill="#475569" font-size="14" width="280">
        compromisso com uma sociedade 
        mais justa,
        </text>
        <text x="600" y="1260" text-anchor="middle" fill="#475569" font-size="14" width="280">
        democrática e sustentável.
    </text>
    
    <!-- Valores -->
    <rect x="800" y="1130" width="300" height="300" fill="#f8fafc" rx="8" />
    <text x="950" y="1155" text-anchor="middle" fill="#3b82f6" font-size="16" font-weight="600">Valores</text>
    <g font-size="13" fill="#475569" text-anchor="middle">
        <text x="950" y="1190">• Ética e integridade</text>
        <text x="950" y="1215">• Respeito à diversidade</text>
        <text x="950" y="1240">• Inovação educacional</text>
        <text x="950" y="1265">• Responsabilidade social</text>
        <text x="950" y="1290">• Sustentabilidade</text>
        <text x="950" y="1315">• Trabalho colaborativo</text>
        <text x="950" y="1340">• Excelência acadêmica</text>
    </g>
    
        <!-- Estrutura Física -->
    <rect x="40" y="1500" width="1120" height="400" fill="#ffffff" rx="8" />
    <text x="60" y="1550" fill="#1e293b" font-size="24" font-weight="700">Nossa Estrutura</text>
    
    <g text-anchor="middle">
        <rect x="100" y="1600" width="220" height="220" fill="#e0f2fe" rx="8" />
        <text x="210" y="1600" fill="#0ea5e9" font-size="36">🏫</text>
        <text x="210" y="1650" fill="#1e293b" font-size="14" font-weight="600">Salas de Aula</text>
        <text x="210" y="1675" fill="#64748b" font-size="12">30 salas climatizadas</text>
        
        <rect x="340" y="1600" width="220" height="220" fill="#f0fdf4" rx="8" />
        <text x="450" y="1600" fill="#22c55e" font-size="36">🔬</text>
        <text x="450" y="1650" fill="#1e293b" font-size="14" font-weight="600">Laboratórios</text>
        <text x="450" y="1675" fill="#64748b" font-size="12">Ciências, Informática, Robótica</text>
        
        <rect x="580" y="1600" width="220" height="220" fill="#fae8ff" rx="8" />
        <text x="690" y="1610" fill="#a855f7" font-size="36">📚</text>
        <text x="690" y="1650" fill="#1e293b" font-size="14" font-weight="600">Biblioteca</text>
        <text x="690" y="1675" fill="#64748b" font-size="12">+10.000 volumes</text>
        
        <rect x="820" y="1600" width="220" height="220" fill="#ffedd5" rx="8" />
        <text x="930" y="1610" fill="#f97316" font-size="36">⚽</text>
        <text x="930" y="1650" fill="#1e293b" font-size="14" font-weight="600">Área Esportiva</text>
        <text x="930" y="1675" fill="#64748b" font-size="12">Quadras e campo</text>
    </g>

    <!-- Direção e Coordenação -->
    <rect x="40" y="1930" width="1120" height="400" fill="#ffffff" rx="8" />
    <text x="60" y="1979" fill="#1e293b" font-size="24" font-weight="700">Direção e Coordenação</text>
    
    <g text-anchor="middle">
        <circle cx="200" cy="2100" r="60" fill="#e2e8f0" />
        <text x="200" y="2175" fill="#1e293b" font-weight="600">Profa. Maria Silva</text>
        <text x="200" y="2195" fill="#64748b" font-size="12">Diretora Geral</text>
        <text x="200" y="2215" fill="#64748b" font-size="12">Mestre em Educação</text>
        
        <circle cx="450" cy="2100" r="60" fill="#e2e8f0" />
        <text x="450" y="2175" fill="#1e293b" font-weight="600">Prof. João Santos</text>
        <text x="450" y="2195" fill="#64748b" font-size="12">Coordenador Pedagógico</text>
        <text x="450" y="2215" fill="#64748b" font-size="12">Especialista em Gestão Escolar</text>
        
        <circle cx="700" cy="2100" r="60" fill="#e2e8f0" />
        <text x="700" y="2175" fill="#1e293b" font-weight="600">Profa. Ana Costa</text>
        <text x="700" y="2195" fill="#64748b" font-size="12">Coordenadora de Ensino Médio</text>
        <text x="700" y="2215" fill="#64748b" font-size="12">Doutora em Educação</text>
        
        <circle cx="950" cy="2100" r="60" fill="#e2e8f0" />
        <text x="950" y="2175" fill="#1e293b" font-weight="600">Prof. Carlos Lima</text>
        <text x="950" y="2195" fill="#64748b" font-size="12">Coordenador de Cursos Técnicos</text>
        <text x="950" y="2215" fill="#64748b" font-size="12">Especialista em Tecnologia Educacional</text>
    </g>
    
        <!-- Call to Action -->
    <rect x="40" y="2360" width="1120" height="200" fill="#1e293b" rx="8" />
    <text x="600" y="2410" text-anchor="middle" fill="#ffffff" font-size="24" font-weight="700">Venha conhecer nossa escola!</text>
    <text x="600" y="2450" text-anchor="middle" fill="#cbd5e1" font-size="16">Agende uma visita e veja como colocamos em prática o legado de Anísio Teixeira</text>
    
    <rect x="500" y="2490" width="200" height="50" fill="#3b82f6" rx="25" />
    <text x="600" y="2520" text-anchor="middle" fill="#ffffff" font-size="16" font-weight="600">Agendar Visita</text>

    <!-- Rodapé -->
    <rect x="0" y="2620" width="1200" height="120" fill="#1e293b" />
    
    <g fill="#cbd5e1" font-size="12">
        <text x="600" y="2640" text-anchor="middle" font-weight="600">Escola Diferente - Uma escola diferente</text>
        <text x="600" y="2660" text-anchor="middle">Av. Principal, 1234 - Bairro Educacional - Cidade - Estado</text>
        <text x="600" y="2680" text-anchor="middle">Telefone: (11) 3456-7890 | E-mail: contato@escoladiferente.com.br</text>
        
        <line x1="400" y1="2690" x2="800" y2="2690" stroke="#475569" />
        
        <text x="600" y="2705" text-anchor="middle">© 2025 Escola Diferente. Todos os direitos reservados.</text>
    </g>

    <!-- Gradientes (definições) -->
    <defs>
        <linearGradient id="gradient" x1="0%" y1="0%" x2="100%" y2="100%">
            <stop offset="0%" stop-color="#3b82f6" />
            <stop offset="100%" stop-color="#1d4ed8" />
        </linearGradient>
    </defs>
</svg>