<svg width="1200" height="4000" xmlns="http://www.w3.org/2000/svg" style="background-color: #f8fafc; font-family: 'Segoe UI', system-ui, sans-serif;">
    <!-- Cabeçalho Minimalista -->
    <rect x="0" y="0" width="1200" height="80" fill="#ffffff" />
    <line x1="0" y1="80" x2="1200" y2="80" stroke="#e2e8f0" stroke-width="2" />
    
    <text x="40" y="45" fill="#1e293b" font-size="20" font-weight="600">Escola Diferente</text>
    
    <!-- Menu de Navegação Discreto -->
    <g fill="#64748b" font-size="14" font-weight="500">
        <text x="900" y="45">Início</text>
        <text x="960" y="45">Histórico</text>
        <text x="1030" y="45">Cursos</text>
        <text x="1085" y="45">Contato</text>
    </g>
    
    <!-- Hero Section -->
    <rect x="40" y="120" width="1120" height="400" fill="#ffffff" rx="8" />
    <rect x="40" y="120" width="1120" height="400" fill="url(#gradient)" rx="8" />
    
    <text x="600" y="260" text-anchor="middle" fill="#ffffff" font-size="36" font-weight="700">Uma escola diferente</text>
    <text x="600" y="310" text-anchor="middle" fill="#e2e8f0" font-size="18">Preparando alunos para o futuro com abordagem inovadora</text>
    
    <rect x="500" y="350" width="200" height="50" fill="#ffffff" rx="25" />
    <text x="600" y="380" text-anchor="middle" fill="#3b82f6" font-size="16" font-weight="600">Conheça Mais</text>
    
    <!-- Seção de História do Colégio -->
    <rect x="40" y="560" width="1120" height="220" fill="#ffffff" rx="8" />
    <text x="40" y="550" fill="#1e293b" font-size="24" font-weight="700">Nossa História</text>
    
    <text x="70" y="590" fill="#475569" font-size="16" font-weight="600">Há mais de 30 anos transformando a educação</text>
    
    <text x="70" y="620" fill="#64748b" font-size="14" width="1060">
        Fundada em 1998, nossa escola surgiu do sonho de oferecer uma educação diferenciada que prepara 
        os alunos não apenas academicamente, mas também para os desafios
        </text>
        
        <text x="70" y="640" fill="#64748b" font-size="14" width="1060">
        do mundo moderno. 
        Desde o início, nossa missão foi romper com os paradigmas tradicionais de ensino...
        </text>
    
    
    <rect x="70" y="680" width="180" height="40" fill="#3b82f6" rx="20" />
    <text x="160" y="705" text-anchor="middle" fill="#ffffff" font-size="14" font-weight="600">Saiba mais</text>
    
    <!-- Cards de Informação -->
    <rect x="40" y="820" width="1120" height="100" fill="#ffffff" rx="8" />
    <g text-anchor="middle">
        <line x1="400" y1="820" x2="400" y2="920" stroke="#f1f5f9" />
        <line x1="760" y1="820" x2="760" y2="920" stroke="#f1f5f9" />
        
        <text x="200" y="860" fill="#475569" font-size="14" font-weight="600">+2000</text>
        <text x="200" y="885" fill="#94a3b8" font-size="12">Alunos</text>
        
        <text x="580" y="860" fill="#475569" font-size="14" font-weight="600">+50</text>
        <text x="580" y="885" fill="#94a3b8" font-size="12">Professores</text>
        
        <text x="940" y="860" fill="#475569" font-size="14" font-weight="600">15</text>
        <text x="940" y="885" fill="#94a3b8" font-size="12">Laboratórios</text>
    </g>
    
    <!-- Seção de Cursos -->
    <text x="40" y="970" fill="#1e293b" font-size="24" font-weight="700">Nossos Cursos</text>
    
    <g font-size="14">
        <!-- Card Curso 1 -->
        <rect x="40" y="1000" width="540" height="120" fill="#ffffff" rx="8" />
        <circle cx="80" cy="1060" r="24" fill="#e0f2fe" />
        <path d="M70 1060 L85 1075 L95 1050" stroke="#0ea5e9" stroke-width="2" fill="none" />
        <text x="120" y="1035" fill="#1e293b" font-weight="600">Ensino Médio Regular</text>
        <text x="120" y="1060" fill="#64748b">Formação completa com foco no ENEM</text>
        <text x="120" y="1085" fill="#0ea5e9" font-weight="500">Saiba mais →</text>
        
        <!-- Card Curso 2 -->
        <rect x="600" y="1000" width="540" height="120" fill="#ffffff" rx="8" />
        <circle cx="640" cy="1060" r="24" fill="#f0fdf4" />
        <path d="M630 1050 L635 1060 L655 1040" stroke="#22c55e" stroke-width="2" fill="none" />
        <text x="680" y="1035" fill="#1e293b" font-weight="600">Ensino Médio Integral</text>
        <text x="680" y="1060" fill="#64748b">Atividades extracurriculares integradas</text>
        <text x="680" y="1085" fill="#0ea5e9" font-weight="500">Saiba mais →</text>
        
        <!-- Card Curso 3 -->
        <rect x="40" y="1140" width="540" height="120" fill="#ffffff" rx="8" />
        <circle cx="80" cy="1200" r="24" fill="#fae8ff" />
        <path d="M75 1190 L75 1210 L90 1200" stroke="#a855f7" stroke-width="2" fill="none" />
        <text x="120" y="1175" fill="#1e293b" font-weight="600">Técnico em Informática</text>
        <text x="120" y="1200" fill="#64748b">Desenvolvimento e programação</text>
        <text x="120" y="1225" fill="#0ea5e9" font-weight="500">Saiba mais →</text>
        
        <!-- Card Curso 4 -->
        <rect x="600" y="1140" width="540" height="120" fill="#ffffff" rx="8" />
        <circle cx="640" cy="1200" r="24" fill="#ffedd5" />
        <path d="M625 1195 L655 1195 L640 1215" stroke="#f97316" stroke-width="2" fill="none" />
        <text x="680" y="1175" fill="#1e293b" font-weight="600">Técnico em Redes</text>
        <text x="680" y="1200" fill="#64748b">Infraestrutura e segurança de redes</text>
        <text x="680" y="1225" fill="#0ea5e9" font-weight="500">Saiba mais →</text>
    </g>
    
    <!-- Galeria de Fotos/Vídeos com Frases Motivadoras -->
    <text x="40" y="1320" fill="#1e293b" font-size="24" font-weight="700">Nossa Escola em Imagens</text>
    
    <g font-size="14">
        <!-- Grid de Fotos -->
        <rect x="40" y="1350" width="360" height="240" fill="#e0f2fe" rx="8" />
        <rect x="420" y="1350" width="360" height="240" fill="#f0fdf4" rx="8" />
        <rect x="800" y="1350" width="360" height="240" fill="#fae8ff" rx="8" />
        
        <!-- Frases motivadoras sobre as imagens -->
        <text x="220" y="1550" text-anchor="middle" fill="#1e293b" font-weight="600" font-size="16">"Aprender fazendo"</text>
        <text x="220" y="1570" text-anchor="middle" fill="#475569" font-size="14">Experiências práticas em laboratório</text>
        
        <text x="600" y="1550" text-anchor="middle" fill="#1e293b" font-weight="600" font-size="16">"Criatividade em ação"</text>
        <text x="600" y="1570" text-anchor="middle" fill="#475569" font-size="14">Projetos interdisciplinares</text>
        
        <text x="980" y="1550" text-anchor="middle" fill="#1e293b" font-weight="600" font-size="16">"Comunidade aprendente"</text>
        <text x="980" y="1570" text-anchor="middle" fill="#475569" font-size="14">Alunos e professores colaborando</text>
        
        <!-- Segunda linha da galeria -->
        <rect x="40" y="1620" width="360" height="240" fill="#ffedd5" rx="8" />
        <rect x="420" y="1620" width="360" height="240" fill="#e0f2fe" rx="8" />
        <rect x="800" y="1620" width="360" height="240" fill="#f0fdf4" rx="8" />
        
        <text x="220" y="1820" text-anchor="middle" fill="#1e293b" font-weight="600" font-size="16">"Inovação constante"</text>
        <text x="220" y="1840" text-anchor="middle" fill="#475569" font-size="14">Tecnologia a serviço da educação</text>
        
        <text x="600" y="1820" text-anchor="middle" fill="#1e293b" font-weight="600" font-size="16">"Espaços inspiradores"</text>
        <text x="600" y="1840" text-anchor="middle" fill="#475569" font-size="14">Ambientes preparados para aprender</text>
        
        <text x="980" y="1820" text-anchor="middle" fill="#1e293b" font-weight="600" font-size="16">"Formação integral"</text>
        <text x="980" y="1840" text-anchor="middle" fill="#475569" font-size="14">Desenvolvimento acadêmico e humano</text>
        
        <!-- Navegação da galeria -->
        <rect x="560" y="1890" width="80" height="40" fill="#3b82f6" rx="20" />
        <text x="600" y="1915" text-anchor="middle" fill="#ffffff" font-size="14" font-weight="600">Ver mais</text>
    </g>
    
    <!-- Seção de Projetos -->
    <text x="40" y="2000" fill="#1e293b" font-size="24" font-weight="700">Projetos em Destaque</text>
    
    <g font-size="14">
        <!-- Grid de Projetos -->
        <rect x="40" y="2030" width="260" height="200" fill="#ffffff" rx="8" />
        <rect x="40" y="2030" width="260" height="120" fill="#e0f2fe" rx="8" />
        <rect x="50" y="2165" width="240" height="30" fill="#f1f5f9" rx="4" />
        <text x="170" y="2060" text-anchor="middle" fill="#0ea5e9" font-weight="600">Robótica</text>
        
        <rect x="320" y="2030" width="260" height="200" fill="#ffffff" rx="8" />
        <rect x="320" y="2030" width="260" height="120" fill="#f0fdf4" rx="8" />
        <rect x="330" y="2165" width="240" height="30" fill="#f1f5f9" rx="4" />
        <text x="450" y="2060" text-anchor="middle" fill="#22c55e" font-weight="600">Desenvolvimento de Apps</text>
        
        <rect x="600" y="2030" width="260" height="200" fill="#ffffff" rx="8" />
        <rect x="600" y="2030" width="260" height="120" fill="#fae8ff" rx="8" />
        <rect x="610" y="2165" width="240" height="30" fill="#f1f5f9" rx="4" />
        <text x="730" y="2060" text-anchor="middle" fill="#a855f7" font-weight="600">Teatro</text>
        
        <rect x="880" y="2030" width="260" height="200" fill="#ffffff" rx="8" />
        <rect x="880" y="2030" width="260" height="120" fill="#ffedd5" rx="8" />
        <rect x="890" y="2165" width="240" height="30" fill="#f1f5f9" rx="4" />
        <text x="1010" y="2060" text-anchor="middle" fill="#f97316" font-weight="600">Feira de Ciências</text>
    </g>
    
    <!-- Seção de Equipe -->
    <rect x="40" y="2270" width="1120" height="400" fill="#ffffff" rx="8" />
    <text x="40" y="2260" fill="#1e293b" font-size="24" font-weight="700">Nossa Equipe</text>
    
    <g text-anchor="middle">
        <!-- Membros da equipe -->
        <circle cx="170" cy="2350" r="50" fill="#e2e8f0" />
        <rect x="120" y="2410" width="100" height="10" fill="#f1f5f9" rx="4" />
        <rect x="120" y="2430" width="80" height="8" fill="#f1f5f9" rx="4" />
        <text x="170" y="2480" fill="#64748b" font-size="12">Direção</text>
        
        <circle cx="370" cy="2350" r="50" fill="#e2e8f0" />
        <rect x="320" y="2410" width="100" height="10" fill="#f1f5f9" rx="4" />
        <rect x="320" y="2430" width="80" height="8" fill="#f1f5f9" rx="4" />
        <text x="370" y="2480" fill="#64748b" font-size="12">Coord. Pedagógica</text>
        
        <circle cx="570" cy="2350" r="50" fill="#e2e8f0" />
        <rect x="520" y="2410" width="100" height="10" fill="#f1f5f9" rx="4" />
        <rect x="520" y="2430" width="80" height="8" fill="#f1f5f9" rx="4" />
        <text x="570" y="2480" fill="#64748b" font-size="12">Professores</text>
        
        <circle cx="770" cy="2350" r="50" fill="#e2e8f0" />
        <rect x="720" y="2410" width="100" height="10" fill="#f1f5f9" rx="4" />
        <rect x="720" y="2430" width="80" height="8" fill="#f1f5f9" rx="4" />
        <text x="770" y="2480" fill="#64748b" font-size="12">Apoio Técnico</text>
        
        <circle cx="970" cy="2350" r="50" fill="#e2e8f0" />
        <rect x="920" y="2410" width="100" height="10" fill="#f1f5f9" rx="4" />
        <rect x="920" y="2430" width="80" height="8" fill="#f1f5f9" rx="4" />
        <text x="970" y="2480" fill="#64748b" font-size="12">AEE</text>
    </g>
    
    <!-- Seção de Contato -->
    <rect x="40" y="2720" width="1120" height="400" fill="#ffffff" rx="8" />
    <text x="40" y="2710" fill="#1e293b" font-size="24" font-weight="700">Entre em Contato</text>
    
    <g font-size="14">
        <rect x="70" y="2750" width="500" height="50" fill="#f8fafc" rx="8" />
        <text x="90" y="2780" fill="#64748b">Nome completo</text>
        
        <rect x="70" y="2820" width="500" height="50" fill="#f8fafc" rx="8" />
        <text x="90" y="2850" fill="#64748b">E-mail</text>
        
        <rect x="70" y="2890" width="500" height="100" fill="#f8fafc" rx="8" />
        <text x="90" y="2920" fill="#64748b">Mensagem</text>
        
        <rect x="70" y="3010" width="500" height="50" fill="#3b82f6" rx="8" />
        <text x="320" y="3040" text-anchor="middle" fill="#ffffff" font-weight="600">Enviar Mensagem</text>
        
        <!-- Informações de contato -->
        <text x="700" y="2770" fill="#1e293b" font-weight="600">Informações de Contato</text>
        
        <text x="700" y="2810" fill="#64748b">📍 Av. Principal, 1234 - Bairro Educacional</text>
        <text x="700" y="2835" fill="#64748b">📞 (11) 3456-7890</text>
        <text x="700" y="2860" fill="#64748b">✉️ contato@escoladiferente.com.br</text>
        
        <text x="700" y="2900" fill="#1e293b" font-weight="600">Horários de Funcionamento</text>
        
        <text x="700" y="2935" fill="#64748b">🏫 Escola: Segunda a sexta, 7h às 18h</text>
        <text x="700" y="2960" fill="#64748b">📋 Secretaria: Segunda a sexta, 8h às 17h</text>
        <text x="700" y="2985" fill="#64748b">📚 Biblioteca: Segunda a sexta, 8h às 17h</text>
    </g>
    
    <!-- Rodapé -->
    <rect x="0" y="3180" width="1200" height="120" fill="#1e293b" />
    
    <g fill="#cbd5e1" font-size="12">
        <text x="600" y="3200" text-anchor="middle" font-weight="600">Escola Diferente - Uma escola diferente</text>
        <text x="600" y="3220" text-anchor="middle">Av. Principal, 1234 - Bairro Educacional - Cidade - Estado</text>
        <text x="600" y="3240" text-anchor="middle">Telefone: (11) 3456-7890 | E-mail: contato@escoladiferente.com.br</text>
        
        <line x1="400" y1="3250" x2="800" y2="3250" stroke="#475569" />
        
        <text x="600" y="3270" text-anchor="middle">© 2025 Escola Diferente. Todos os direitos reservados.</text>
    </g>
    
    <!-- Gradientes (definições) -->
    <defs>
        <linearGradient id="gradient" x1="0%" y1="0%" x2="100%" y2="100%">
            <stop offset="0%" stop-color="#3b82f6" />
            <stop offset="100%" stop-color="#1d4ed8" />
        </linearGradient>
    </defs>
</svg>